HIERARCHY
ROOT Hips
{
	OFFSET 0.00000 0.00000 0.00000
	CHANNELS 6 Xposition Yposition Zposition Zrotation Yrotation Xrotation 
	JOINT LHipJoint
	{
		OFFSET 0 0 0
		CHANNELS 3 Zrotation Yrotation Xrotation
		JOINT LeftUpLeg
		{
			OFFSET 2.36090 -1.39315 1.24752
			CHANNELS 3 Zrotation Yrotation Xrotation
			JOINT LeftLeg
			{
				OFFSET 2.06810 -5.68207 0.00000
				CHANNELS 3 Zrotation Yrotation Xrotation
				JOINT LeftFoot
				{
					OFFSET 2.46631 -6.77613 0.00000
					CHANNELS 3 Zrotation Yrotation Xrotation
					JOINT LeftToeBase
					{
						OFFSET 0.26031 -0.71520 1.99545
						CHANNELS 3 Zrotation Yrotation Xrotation
						End Site
						{
							OFFSET 0.00000 -0.00000 1.05957
						}
					}
				}
			}
		}
	}
	JOINT RHipJoint
	{
		OFFSET 0 0 0
		CHANNELS 3 Zrotation Yrotation Xrotation
		JOINT RightUpLeg
		{
			OFFSET -2.25243 -1.39315 1.24752
			CHANNELS 3 Zrotation Yrotation Xrotation
			JOINT RightLeg
			{
				OFFSET -2.17343 -5.97145 0.00000
				CHANNELS 3 Zrotation Yrotation Xrotation
				JOINT RightFoot
				{
					OFFSET -2.52372 -6.93386 0.00000
					CHANNELS 3 Zrotation Yrotation Xrotation
					JOINT RightToeBase
					{
						OFFSET -0.22538 -0.61923 2.11447
						CHANNELS 3 Zrotation Yrotation Xrotation
						End Site
						{
							OFFSET -0.00000 -0.00000 1.10506
						}
					}
				}
			}
		}
	}
	JOINT LowerBack
	{
		OFFSET 0 0 0
		CHANNELS 3 Zrotation Yrotation Xrotation
		JOINT Spine
		{
			OFFSET 0.01594 2.13103 0.08007
			CHANNELS 3 Zrotation Yrotation Xrotation
			JOINT Spine1
			{
				OFFSET 0.01393 2.09723 0.18338
				CHANNELS 3 Zrotation Yrotation Xrotation
				JOINT Neck
				{
					OFFSET 0 0 0
					CHANNELS 3 Zrotation Yrotation Xrotation
					JOINT Neck1
					{
						OFFSET 0.05351 1.38915 0.32494
						CHANNELS 3 Zrotation Yrotation Xrotation
						JOINT Head
						{
							OFFSET 0.00711 1.45992 -0.21666
							CHANNELS 3 Zrotation Yrotation Xrotation
							End Site
							{
								OFFSET -0.00433 1.47702 -0.11056
							}
						}
					}
				}
				JOINT LeftShoulder
				{
					OFFSET 0 0 0
					CHANNELS 3 Zrotation Yrotation Xrotation
					JOINT LeftArm
					{
						OFFSET 2.87198 0.92249 0.11132
						CHANNELS 3 Zrotation Yrotation Xrotation
						JOINT LeftForeArm
						{
							OFFSET 5.52731 -0.00000 0.00000
							CHANNELS 3 Zrotation Yrotation Xrotation
							JOINT LeftHand
							{
								OFFSET 3.11059 -0.00000 0.00000
								CHANNELS 3 Zrotation Yrotation Xrotation
								JOINT LeftFingerBase
								{
									OFFSET 0 0 0
									CHANNELS 3 Zrotation Yrotation Xrotation
									JOINT LeftHandIndex1
									{
										OFFSET 0.41963 -0.00000 0.00000
										CHANNELS 3 Zrotation Yrotation Xrotation
										End Site
										{
											OFFSET 0.33831 -0.00000 0.00000
										}
									}
								}
								JOINT LThumb
								{
									OFFSET 0 0 0
									CHANNELS 3 Zrotation Yrotation Xrotation
									End Site
									{
										OFFSET 0.34348 -0.00000 0.34348
									}
								}
							}
						}
					}
				}
				JOINT RightShoulder
				{
					OFFSET 0 0 0
					CHANNELS 3 Zrotation Yrotation Xrotation
					JOINT RightArm
					{
						OFFSET -2.94710 0.68072 0.32187
						CHANNELS 3 Zrotation Yrotation Xrotation
						JOINT RightForeArm
						{
							OFFSET -5.25396 -0.00000 -0.00000
							CHANNELS 3 Zrotation Yrotation Xrotation
							JOINT RightHand
							{
								OFFSET -3.10567 -0.00000 0.00000
								CHANNELS 3 Zrotation Yrotation Xrotation
								JOINT RightFingerBase
								{
									OFFSET 0 0 0
									CHANNELS 3 Zrotation Yrotation Xrotation
									JOINT RightHandIndex1
									{
										OFFSET -0.49868 -0.00000 0.00000
										CHANNELS 3 Zrotation Yrotation Xrotation
										End Site
										{
											OFFSET -0.40204 -0.00000 0.00000
										}
									}
								}
								JOINT RThumb
								{
									OFFSET 0 0 0
									CHANNELS 3 Zrotation Yrotation Xrotation
									End Site
									{
										OFFSET -0.40818 -0.00000 0.40818
									}
								}
							}
						}
					}
				}
			}
		}
	}
}
MOTION
Frames: 10
Frame Time: .0083333
3.8459 15.8448 12.8686 -4.3662 -7.2313 26.5801 0.0000 0.0000 0.0000 -1.0106 -24.7877 -15.9991 0.2813 3.4112 9.4259 -3.0429 30.0766 -20.5069 0.2465 -3.1946 -8.8211 0.0000 0.0000 0.0000 1.6866 40.1936 -19.0870 -0.9741 -6.2831 17.6082 4.0684 -38.3454 -37.4380 -0.0353 -1.2134 3.3361 3.5640 -0.3205 -16.5969 0.1529 -1.0217 -6.1948 -2.0445 -0.5591 2.6353 1.0932 -2.7914 -23.1989 6.7585 -6.1390 21.4795 1.2865 -1.8334 11.0090 -0.0000 -0.0000 0.0000 -77.1403 -4.1759 52.2837 92.6146 -59.9742 -62.2641 -0.0000 0.0000 -55.3300 49.9839 8.0530 9.4729 -7.1250 0.0000 -0.0000 20.6307 41.4459 -1.8993 -0.0000 -0.0000 0.0000 78.6785 4.2358 60.5433 -91.0953 59.9955 -60.9485 0.0000 -0.0000 -39.9890 -18.1758 -26.3225 8.2831 7.1250 -0.0000 -0.0000 12.9972 -57.0104 -3.8695
3.8665 15.8465 12.8825 -4.2146 -7.0574 26.4773 0.0000 0.0000 0.0000 -1.4158 -24.1154 -16.1856 0.2803 3.4051 9.4088 -2.9123 29.4037 -19.5950 0.2952 -3.4935 -9.6558 0.0000 0.0000 0.0000 1.6776 39.8844 -18.8311 -0.9665 -6.2593 17.5387 4.0203 -38.2720 -37.5184 -0.0350 -1.2077 3.3204 3.3881 -0.3566 -16.6614 0.0626 -1.0395 -6.2079 -2.0444 -0.5665 2.6566 0.9705 -2.8758 -22.9275 6.8675 -6.2268 21.3976 1.3335 -1.8793 10.9392 -0.0000 0.0000 0.0000 -77.2224 -4.3508 52.1105 92.9397 -59.9673 -62.5455 -0.0000 0.0000 -54.8168 49.7273 7.9832 9.3093 -7.1250 0.0000 -0.0000 20.3704 41.3073 -1.9462 -0.0000 0.0000 0.0000 78.7790 4.3454 60.5463 -91.2303 59.9943 -61.0654 0.0000 -0.0000 -39.6841 -18.3112 -25.7985 8.1957 7.1250 -0.0000 -0.0000 12.5810 -56.5186 -3.5925
3.8879 15.8481 12.8960 -4.0401 -6.8810 26.3798 0.0000 0.0000 0.0000 -1.8081 -23.5824 -16.3226 0.2767 3.3833 9.3477 -2.8081 28.8401 -18.7706 0.3453 -3.7757 -10.4464 0.0000 0.0000 0.0000 1.6237 39.5954 -18.6046 -0.9631 -6.2485 17.5072 3.9545 -38.1870 -37.6661 -0.0359 -1.2226 3.3616 3.1952 -0.3920 -16.7235 -0.0419 -1.0530 -6.2159 -2.0488 -0.5716 2.6822 0.8218 -2.9529 -22.7202 7.0218 -6.3119 21.3347 1.4013 -1.9183 10.8915 0.0000 -0.0000 0.0000 -77.3053 -4.5234 51.9382 93.1955 -59.9614 -62.7670 -0.0000 0.0000 -54.3248 49.4425 7.9106 9.1358 -7.1250 0.0000 -0.0000 20.0847 41.1618 -1.9920 0.0000 -0.0000 0.0000 78.8965 4.4514 60.5211 -91.3152 59.9935 -61.1390 0.0000 -0.0000 -39.3375 -18.3840 -25.3080 8.0861 7.1250 -0.0000 -0.0000 12.2579 -56.0450 -3.3569
3.9106 15.8495 12.9090 -3.8473 -6.7018 26.2789 0.0000 0.0000 0.0000 -2.2301 -23.0581 -16.4392 0.2714 3.3512 9.2580 -2.7001 28.2577 -17.9623 0.3969 -4.0449 -11.2029 0.0000 0.0000 0.0000 1.5404 39.3156 -18.3926 -0.9629 -6.2481 17.5059 3.8819 -38.1008 -37.8470 -0.0369 -1.2403 3.4101 2.9957 -0.4265 -16.7720 -0.1626 -1.0628 -6.2159 -2.0657 -0.5748 2.7092 0.6940 -3.0263 -22.6548 7.1790 -6.4118 21.3443 1.4636 -1.9556 10.8977 -0.0000 -0.0000 0.0000 -77.3811 -4.6908 51.7693 93.3777 -59.9568 -62.9247 -0.0000 0.0000 -53.8508 49.1332 7.8198 8.9368 -7.1250 0.0000 -0.0000 19.7724 40.9882 -2.0469 -0.0000 -0.0000 0.0000 79.0413 4.5565 60.4613 -91.3468 59.9931 -61.1663 0.0000 -0.0000 -38.9464 -18.3898 -24.8787 7.9620 7.1250 -0.0000 -0.0000 12.0425 -55.6174 -3.1711
3.9344 15.8505 12.9218 -3.6471 -6.5182 26.1818 0.0000 0.0000 0.0000 -2.6652 -22.5424 -16.5545 0.2658 3.3166 9.1616 -2.5877 27.6536 -17.1817 0.4496 -4.3020 -11.9279 0.0000 0.0000 0.0000 1.4373 39.0405 -18.1963 -0.9647 -6.2537 17.5224 3.7999 -38.0062 -38.0567 -0.0388 -1.2710 3.4947 2.7992 -0.4558 -16.8141 -0.2964 -1.0652 -6.2124 -2.0967 -0.5745 2.7367 0.5967 -3.1040 -22.6097 7.3289 -6.5262 21.3429 1.5157 -1.9979 10.9034 -0.0000 -0.0000 0.0000 -77.4523 -4.8528 51.6130 93.4656 -59.9546 -63.0009 -0.0000 0.0000 -53.4026 48.7823 7.6708 8.6640 -7.1250 0.0000 -0.0000 19.4069 40.7281 -2.1360 -0.0000 -0.0000 0.0000 79.2065 4.6540 60.3683 -91.3212 59.9934 -61.1442 0.0000 -0.0000 -38.5126 -18.3596 -24.4473 7.8205 7.1250 -0.0000 -0.0000 11.8694 -55.1798 -2.9977
3.9593 15.8510 12.9346 -3.4483 -6.3276 26.0729 0.0000 0.0000 0.0000 -3.1090 -22.0361 -16.6614 0.2612 3.2879 9.0813 -2.4697 27.0226 -16.4478 0.5025 -4.5442 -12.6130 0.0000 0.0000 0.0000 1.3415 38.7719 -17.9804 -0.9668 -6.2603 17.5416 3.6984 -37.8917 -38.3195 -0.0429 -1.3370 3.6765 2.6130 -0.4820 -16.8403 -0.4374 -1.0642 -6.1967 -2.1403 -0.5724 2.7683 0.5338 -3.1824 -22.6332 7.4626 -6.6535 21.3636 1.5538 -2.0426 10.9293 -0.0000 -0.0000 0.0000 -77.5211 -5.0103 51.4672 93.4596 -59.9547 -62.9957 -0.0000 0.0000 -52.9846 48.3872 7.4331 8.2867 -7.1250 0.0000 -0.0000 18.9793 40.3404 -2.2745 -0.0000 -0.0000 0.0000 79.3933 4.7491 60.2410 -91.2405 59.9942 -61.0742 0.0000 -0.0000 -38.0398 -18.2924 -24.0636 7.6767 7.1250 -0.0000 -0.0000 11.7614 -54.7822 -2.8555
3.9853 15.8510 12.9475 -3.2623 -6.1259 25.9544 0.0000 0.0000 0.0000 -3.5452 -21.5407 -16.7724 0.2587 3.2721 9.0371 -2.3468 26.3639 -15.7690 0.5554 -4.7740 -13.2650 0.0000 0.0000 0.0000 1.2685 38.5079 -17.7364 -0.9678 -6.2634 17.5506 3.5834 -37.7650 -38.6216 -0.0492 -1.4321 3.9387 2.4344 -0.5117 -16.8393 -0.5664 -1.0686 -6.1896 -2.1760 -0.5735 2.7763 0.4722 -3.2725 -22.5827 7.5837 -6.7895 21.3549 1.5860 -2.0957 10.9304 0.0000 -0.0000 0.0000 -77.6126 -5.1346 51.3260 93.3366 -59.9579 -62.8891 -0.0000 0.0000 -52.5964 47.9683 7.1543 7.8664 -7.1250 0.0000 -0.0000 18.5247 39.8959 -2.4272 0.0000 -0.0000 0.0000 79.5763 4.8037 60.1012 -91.1195 59.9953 -60.9695 0.0000 -0.0000 -37.5420 -18.1966 -23.7081 7.5291 7.1250 -0.0000 -0.0000 11.6991 -54.4074 -2.7326
4.0122 15.8506 12.9603 -3.0946 -5.9119 25.8214 0.0000 0.0000 0.0000 -3.9662 -21.0555 -16.8895 0.2588 3.2732 9.0404 -2.2192 25.6748 -15.1529 0.6075 -4.9888 -13.8767 0.0000 0.0000 0.0000 1.2304 38.2480 -17.4504 -0.9665 -6.2593 17.5386 3.4559 -37.6272 -38.9585 -0.0583 -1.5575 4.2842 2.2799 -0.5351 -16.8203 -0.6980 -1.0681 -6.1653 -2.2269 -0.5720 2.7927 0.4344 -3.3730 -22.5422 7.6952 -6.9446 21.3329 1.6076 -2.1571 10.9283 0.0000 0.0000 0.0000 -77.6978 -5.2770 51.1959 93.0929 -59.9638 -62.6782 -0.0000 0.0000 -52.2497 47.5074 6.8306 7.3972 -7.1250 0.0000 -0.0000 18.0273 39.3888 -2.5914 0.0000 0.0000 0.0000 79.7789 4.8632 59.9273 -90.9467 59.9966 -60.8199 0.0000 -0.0000 -37.0249 -18.1058 -23.3162 7.3739 7.1250 -0.0000 -0.0000 11.6188 -53.9967 -2.5964
4.0391 15.8496 12.9741 -2.9486 -5.6863 25.6644 0.0000 0.0000 0.0000 -4.3717 -20.5747 -16.9965 0.2619 3.2922 9.0934 -2.0879 24.9557 -14.6055 0.6585 -5.1903 -14.4521 0.0000 0.0000 0.0000 1.2439 38.0189 -17.0905 -0.9624 -6.2464 17.5010 3.3194 -37.4959 -39.3493 -0.0702 -1.7089 4.7017 2.1313 -0.5566 -16.7758 -0.8181 -1.0658 -6.1302 -2.2685 -0.5695 2.8072 0.4343 -3.4788 -22.4603 7.7698 -7.1050 21.2711 1.6088 -2.2252 10.9011 0.0000 0.0000 0.0000 -77.7964 -5.4189 51.0737 92.7301 -59.9718 -62.3641 -0.0000 0.0000 -51.9476 47.0147 6.5343 6.9612 -7.1250 0.0000 -0.0000 17.5164 38.9219 -2.7217 0.0000 0.0000 0.0000 79.9764 4.9079 59.7310 -90.7368 59.9980 -60.6381 0.0000 -0.0000 -36.5051 -17.9886 -22.9682 7.2211 7.1250 -0.0000 -0.0000 11.5875 -53.6253 -2.4836
4.0675 15.8485 12.9877 -2.8181 -5.4483 25.5069 0.0000 0.0000 0.0000 -4.7607 -20.1067 -17.1235 0.2672 3.3253 9.1859 -1.9563 24.2164 -14.1063 0.7080 -5.3777 -14.9891 0.0000 0.0000 0.0000 1.2798 37.7447 -16.7237 -0.9557 -6.2251 17.4391 3.2079 -37.3807 -39.6477 -0.0797 -1.8216 5.0130 1.9964 -0.5779 -16.7154 -0.9258 -1.0658 -6.0953 -2.3048 -0.5683 2.8130 0.4233 -3.5832 -22.4507 7.8350 -7.2656 21.2740 1.6081 -2.2909 10.9114 0.0000 0.0000 0.0000 -77.9155 -5.5605 50.9482 92.2435 -59.9810 -61.9428 -0.0000 0.0000 -51.6946 46.4898 6.2977 6.5915 -7.1250 0.0000 -0.0000 16.9985 38.5400 -2.8011 0.0000 0.0000 0.0000 80.1598 4.9421 59.5199 -90.4922 59.9991 -60.4262 0.0000 -0.0000 -35.9946 -17.8637 -22.6041 7.0617 7.1250 -0.0000 -0.0000 11.5597 -53.2366 -2.3670
